<svg width="850" height="300" xmlns="http://www.w3.org/2000/svg">

 <g>
  <title>background</title>
  <rect fill="none" id="canvas_background" height="302" width="852" y="-1" x="-1"/>
 </g>
 <g>
  <title>Layer 1</title>
  <g id="svg_1">
   <polygon id="svg_2" points="374.917,138.775 374.917,79.516 426.226,49.756 462.908,70.795 462.836,70.836 492.398,87.801    507.292,79 507.037,62.07 426.226,15.637 345.67,61.814 345.417,155.707 426.226,202.398 507.037,155.707 507.037,121.074    426.226,168.275  " fill="#0F1231"/>
   <path id="svg_3" d="m456.95,74.014l-14.69,8.387c-3.873,-2.121 -8.32,-3.326 -13.047,-3.326c-15.018,0 -27.193,12.172 -27.193,27.191c0,15.018 12.175,27.195 27.193,27.195c14.215,0 25.875,-10.91 27.082,-24.809l30.324,-17.807l-29.669,-16.831z" fill="#FDC20F"/>
   <g id="svg_4">
    <path id="svg_5" d="m436.735,112.1c1.494,-0.15 2.629,-1.439 2.578,-2.99c-0.051,-1.545 -1.339,-2.783 -2.886,-2.783l-0.102,0c-1.6,0.053 -2.836,1.395 -2.785,2.992c0.053,0.773 0.361,1.439 0.826,1.906c-1.754,3.455 -4.434,5.975 -8.451,8.092c-2.732,1.441 -5.564,1.955 -8.402,1.598c-2.318,-0.313 -4.123,-1.342 -5.255,-3.043c-1.648,-2.521 -1.803,-5.258 -0.412,-7.986c0.98,-1.955 2.525,-3.402 3.504,-4.125c-0.206,-0.664 -0.516,-1.805 -0.67,-2.625c-7.472,5.408 -6.7,12.729 -4.432,16.182c1.7,2.574 5.154,4.17 8.966,4.17c1.03,0 2.063,-0.098 3.094,-0.357c6.597,-1.291 11.594,-5.207 14.427,-11.031z" fill="#0F1231"/>
    <path id="svg_6" d="m445.807,105.709c-3.915,-4.588 -9.688,-7.109 -16.286,-7.109l-0.824,0c-0.462,-0.93 -1.443,-1.551 -2.523,-1.551l-0.104,0c-1.597,0.053 -2.837,1.395 -2.785,2.992c0.055,1.543 1.341,2.781 2.889,2.781l0.102,0c1.135,-0.047 2.113,-0.77 2.527,-1.754l0.927,0c3.915,0 7.627,1.141 10.974,3.355c2.579,1.701 4.435,3.916 5.463,6.594c0.877,2.162 0.825,4.279 -0.102,6.084c-1.441,2.73 -3.864,4.223 -7.061,4.223c-2.06,0 -4.021,-0.613 -5.049,-1.082c-0.567,0.516 -1.599,1.342 -2.318,1.857c2.217,1.029 4.482,1.596 6.646,1.596c4.948,0 8.606,-2.729 9.996,-5.459c1.494,-2.992 1.392,-8.144 -2.472,-12.527z" fill="#0F1231"/>
    <path id="svg_7" d="m419.626,112.977c0.053,1.545 1.341,2.783 2.887,2.783l0.104,0c1.596,-0.053 2.834,-1.393 2.783,-2.99c-0.052,-1.545 -1.34,-2.781 -2.887,-2.781l-0.103,0c-0.103,0 -0.257,0 -0.361,0.051c-2.112,-3.504 -2.988,-7.32 -2.679,-11.439c0.205,-3.094 1.236,-5.773 3.04,-7.988c1.494,-1.906 4.379,-2.838 6.337,-2.885c5.465,-0.104 7.783,6.697 7.938,9.428c0.67,0.156 1.802,0.516 2.576,0.775c-0.618,-8.352 -5.772,-12.68 -10.719,-12.68c-4.639,0 -8.917,3.35 -10.616,8.295c-2.369,6.6 -0.824,12.938 2.061,17.936c-0.257,0.362 -0.411,0.93 -0.361,1.495z" fill="#0F1231"/>
   </g>
  </g>
  <g id="svg_8">
   <path id="svg_9" d="m125.007,113.968l-71.328,0l0,16.021c0,7.462 2.633,12.768 7.901,15.912c5.267,3.147 13.093,4.718 23.483,4.718c10.096,0 22.019,-1.755 35.774,-5.267l0,15.144c-13.168,2.925 -25.973,4.389 -38.407,4.389c-32.481,0 -48.723,-10.825 -48.723,-32.481l0,-41.918c0,-13.021 3.731,-22.311 11.193,-27.873c7.462,-5.559 19.385,-8.34 35.773,-8.34c15.363,0 26.59,2.671 33.688,8.011c7.095,5.343 10.645,14.742 10.645,28.202l0,23.482l0.001,0zm-19.753,-12.948l0,-16.68c0,-6.437 -1.975,-10.864 -5.926,-13.278c-3.95,-2.414 -10.535,-3.621 -19.752,-3.621c-8.779,0 -15.291,1.173 -19.533,3.512c-4.245,2.342 -6.364,6.804 -6.364,13.388l0,16.68l51.575,0l0,-0.001z"/>
   <path id="svg_10" d="m231.886,161.813c-9.657,2.047 -20.997,3.072 -34.018,3.072c-6.44,0 -11.45,-0.109 -15.034,-0.329c-3.587,-0.219 -7.681,-0.953 -12.29,-2.194s-8.121,-3.035 -10.535,-5.377c-2.414,-2.339 -4.499,-5.74 -6.255,-10.205c-1.756,-4.462 -2.634,-9.986 -2.634,-16.57l0,-39.066c0,-5.851 0.549,-10.898 1.646,-15.144c1.098,-4.242 2.815,-7.682 5.158,-10.315c2.339,-2.634 4.753,-4.753 7.243,-6.364c2.486,-1.608 5.888,-2.743 10.205,-3.402c4.314,-0.658 8.121,-1.097 11.413,-1.316s7.716,-0.329 13.278,-0.329c10.096,0 20.191,1.098 30.287,3.292l0,14.484c-11.413,-2.926 -22.314,-4.39 -32.701,-4.39c-10.974,0 -18.106,1.316 -21.398,3.95s-4.938,8.196 -4.938,16.68l0,43.455c0,7.757 1.866,12.914 5.597,15.473c3.731,2.562 11.375,3.841 22.935,3.841c10.387,0 21.069,-1.389 32.042,-4.17l0,14.924l-0.001,0z" fill="#FDC20F"/>
   <path id="svg_11" d="m314.185,71.172l-10.974,0c-9.074,0 -15.768,1.173 -20.082,3.511c-4.317,2.343 -6.474,6.732 -6.474,13.169l0,74.839l-19.752,0l0,-106.224l18.655,0l0,17.339c0,-5.12 3.183,-9.657 9.547,-13.607c6.365,-3.95 12.839,-5.926 19.423,-5.926l9.657,0l0,16.899z"/>
   <path id="svg_12" d="m627.364,162.691l-19.753,0l0,-76.815c0,-2.634 -0.219,-4.828 -0.658,-6.584c-0.438,-1.756 -1.354,-3.546 -2.743,-5.377c-1.393,-1.828 -3.73,-3.217 -7.023,-4.17c-3.292,-0.95 -7.427,-1.427 -12.399,-1.427c-11.56,0 -19.313,1.245 -23.264,3.731c-3.951,2.489 -5.926,7.098 -5.926,13.826l0,76.814l-19.752,0l0,-106.222l19.752,0l0,12.949c2.047,-10.096 13.679,-15.144 34.896,-15.144c14.046,0 23.703,2.523 28.97,7.571c5.268,5.048 7.901,12.695 7.901,22.935l0,77.913l-0.001,0z"/>
   <path id="svg_13" d="m681.353,38.691l-19.753,0l0,-20.631l19.753,0l0,20.631zm0,124l-19.753,0l0,-106.224l19.753,0l0,106.224z"/>
   <path id="svg_14" d="m801.4,162.691l-21.729,0l-28.75,-41.919l-28.531,41.919l-21.728,0l39.505,-54.648l-37.31,-51.575l21.728,0l26.336,38.847l26.555,-38.847l21.729,0l-37.311,51.575l39.506,54.648z"/>
  </g>
  <g id="svg_15">
   <path id="svg_16" d="m103.383,209.212l-15.014,46.623l-8.118,0l-11.135,-38.792l-11.422,38.792l-8.118,0l-14.583,-46.623l7.399,0l11.566,40.014l0.144,0l11.566,-40.014l7.399,0l11.566,40.014l0.144,0l11.566,-40.014l7.04,0z" fill="#010101"/>
   <path id="svg_17" d="m134.561,239.887l-23.347,0l0,5.244c0,2.442 0.862,4.18 2.586,5.209c1.724,1.03 4.286,1.544 7.687,1.544c3.305,0 7.208,-0.574 11.709,-1.724l0,4.956c-4.31,0.958 -8.501,1.438 -12.571,1.438c-10.632,0 -15.948,-3.544 -15.948,-10.633l0,-13.721c0,-4.262 1.221,-7.303 3.664,-9.123c2.442,-1.819 6.345,-2.729 11.709,-2.729c5.028,0 8.704,0.874 11.027,2.622c2.322,1.748 3.484,4.825 3.484,9.23l0,7.687zm-6.466,-4.238l0,-5.46c0,-2.106 -0.647,-3.556 -1.94,-4.346s-3.448,-1.186 -6.465,-1.186c-2.874,0 -5.005,0.384 -6.394,1.149c-1.39,0.767 -2.083,2.228 -2.083,4.382l0,5.46l16.882,0l0,0.001z" fill="#010101"/>
   <path id="svg_18" d="m176.082,230.189l0,14.296c0,2.108 -0.312,3.928 -0.934,5.46c-0.623,1.533 -1.401,2.719 -2.334,3.556c-0.934,0.839 -2.167,1.498 -3.7,1.976c-1.533,0.479 -2.97,0.778 -4.31,0.898c-1.341,0.119 -2.97,0.18 -4.885,0.18c-2.491,0 -4.526,-0.12 -6.106,-0.359c-1.581,-0.24 -3.161,-0.742 -4.741,-1.509c-1.581,-0.766 -2.755,-1.999 -3.52,-3.699c-0.767,-1.7 -1.149,-3.867 -1.149,-6.502l0,-38.936l6.465,0l0,10.416c0,0.91 -0.013,2.288 -0.036,4.131c-0.024,1.845 -0.036,3.222 -0.036,4.131c0.19,-1.102 1.185,-2.022 2.981,-2.766c1.796,-0.742 4.442,-1.113 7.938,-1.113c9.577,-0.001 14.367,3.279 14.367,9.84zm-6.609,15.23l0,-13.649c0,-2.969 -0.695,-4.85 -2.083,-5.64c-1.39,-0.79 -3.855,-1.186 -7.399,-1.186c-3.401,0 -5.771,0.456 -7.112,1.365c-1.341,0.91 -2.011,2.73 -2.011,5.46l0,13.649c0,2.921 0.658,4.802 1.976,5.639c1.316,0.839 3.723,1.257 7.219,1.257c3.544,0 5.999,-0.418 7.364,-1.257c1.363,-0.836 2.046,-2.717 2.046,-5.638z" fill="#010101"/>
   <path id="svg_19" d="m229.959,255.835l-6.25,0l0,-3.305c-0.527,2.683 -4.023,4.023 -10.488,4.023c-4.79,0 -8.106,-0.729 -9.95,-2.191c-1.844,-1.46 -2.766,-4.418 -2.766,-8.872c0,-3.879 0.862,-6.548 2.586,-8.01c1.724,-1.46 5.052,-2.191 9.985,-2.191l10.417,0l0,-5.531c0,-1.915 -0.587,-3.208 -1.76,-3.879c-1.174,-0.67 -3.389,-1.006 -6.645,-1.006c-3.544,0 -7.519,0.287 -11.925,0.862l0,-4.741c4.741,-0.432 9.027,-0.646 12.859,-0.646c5.842,0 9.626,0.707 11.35,2.119c1.724,1.413 2.586,4.346 2.586,8.8l0,24.568l0.001,0zm-6.465,-7.04l0,-9.482l-9.986,0c-2.97,0 -4.825,0.384 -5.567,1.149c-0.743,0.767 -1.113,2.514 -1.113,5.244c0,2.442 0.395,4.155 1.186,5.136c0.79,0.982 2.454,1.473 4.993,1.473l1.293,0c1.245,0 2.286,-0.023 3.125,-0.071c0.837,-0.047 1.783,-0.18 2.837,-0.396c1.053,-0.215 1.855,-0.574 2.407,-1.077c0.549,-0.503 0.825,-1.161 0.825,-1.976z" fill="#010101"/>
   <path id="svg_20" d="m272.846,244.485c0,2.108 -0.312,3.928 -0.934,5.46c-0.623,1.533 -1.401,2.719 -2.334,3.556c-0.934,0.839 -2.167,1.498 -3.7,1.976c-1.533,0.479 -2.97,0.778 -4.31,0.898c-1.341,0.119 -2.97,0.18 -4.885,0.18c-1.916,0 -3.784,-0.24 -5.603,-0.719c-1.821,-0.479 -2.97,-1.222 -3.448,-2.227l0,17.169l-6.465,0l0,-49.712l6.394,0l0,3.735l0.072,0c0.526,-2.969 4.478,-4.453 11.853,-4.453c4.645,0 8.034,0.97 10.165,2.909c2.13,1.939 3.197,4.251 3.197,6.932l0,14.296l-0.002,0zm-6.609,0.79l0,-12.787c0,-3.208 -0.695,-5.255 -2.083,-6.142c-1.39,-0.886 -3.855,-1.329 -7.399,-1.329c-3.544,0 -5.951,0.431 -7.22,1.293c-1.269,0.862 -1.903,2.922 -1.903,6.178l0,12.787c0,2.922 0.658,4.803 1.976,5.64c1.316,0.839 3.723,1.257 7.219,1.257c3.544,0 5.999,-0.418 7.364,-1.257c1.363,-0.837 2.046,-2.718 2.046,-5.64z" fill="#010101"/>
   <path id="svg_21" d="m314.439,244.485c0,2.108 -0.312,3.928 -0.934,5.46c-0.623,1.533 -1.401,2.719 -2.334,3.556c-0.934,0.839 -2.167,1.498 -3.7,1.976c-1.533,0.479 -2.97,0.778 -4.31,0.898c-1.341,0.119 -2.97,0.18 -4.885,0.18c-1.916,0 -3.784,-0.24 -5.603,-0.719c-1.821,-0.479 -2.97,-1.222 -3.448,-2.227l0,17.169l-6.465,0l0,-49.712l6.394,0l0,3.735l0.072,0c0.526,-2.969 4.478,-4.453 11.853,-4.453c4.645,0 8.034,0.97 10.165,2.909c2.13,1.939 3.197,4.251 3.197,6.932l0,14.296l-0.002,0zm-6.608,0.79l0,-12.787c0,-3.208 -0.695,-5.255 -2.083,-6.142c-1.39,-0.886 -3.855,-1.329 -7.399,-1.329c-3.544,0 -5.951,0.431 -7.22,1.293c-1.269,0.862 -1.903,2.922 -1.903,6.178l0,12.787c0,2.922 0.658,4.803 1.976,5.64c1.316,0.839 3.723,1.257 7.219,1.257c3.544,0 5.999,-0.418 7.364,-1.257c1.363,-0.837 2.046,-2.718 2.046,-5.64z" fill="#010101"/>
   <path id="svg_22" d="m350.142,243.624l0,3.017c0,3.735 -1.306,6.322 -3.915,7.759c-2.611,1.437 -6.358,2.155 -11.243,2.155c-3.736,0 -7.711,-0.288 -11.925,-0.862l0,-4.957c5.747,0.91 9.77,1.365 12.069,1.365c2.874,0 5.029,-0.275 6.465,-0.826c1.437,-0.55 2.155,-1.688 2.155,-3.412l0,-3.521c0,-1.483 -0.503,-2.538 -1.509,-3.161c-1.005,-0.621 -2.634,-0.934 -4.885,-0.934l-3.951,0c-3.64,0 -6.394,-0.754 -8.261,-2.263s-2.802,-3.58 -2.802,-6.214l0,-3.232c0,-5.46 5.172,-8.189 15.517,-8.189c1.149,0 4.669,0.191 10.56,0.574l0,4.67c-4.12,-0.671 -7.735,-1.006 -10.848,-1.006c-3.448,0 -5.783,0.335 -7.004,1.006s-1.832,1.796 -1.832,3.376l0,2.945c0,2.347 2.13,3.52 6.394,3.52l4.023,0c7.329,-0.001 10.992,2.73 10.992,8.19z" fill="#010101"/>
   <path id="svg_23" d="m396.692,225.304l-11.566,0l0,30.531l-6.465,0l0,-30.531l-7.974,0l0,-4.238l7.974,0l0,-5.604c0,-3.926 1.101,-6.681 3.305,-8.261c2.202,-1.581 5.411,-2.371 9.626,-2.371c1.868,0 3.808,0.12 5.819,0.359l0,4.238c-1.677,-0.239 -3.545,-0.359 -5.604,-0.359c-2.347,0 -4.047,0.408 -5.1,1.222c-1.054,0.814 -1.581,2.396 -1.581,4.741l0,6.034l11.566,0l0,4.239z" fill="#010101"/>
   <path id="svg_24" d="m433.615,232.776l0,12.068c0,2.155 -0.264,3.976 -0.79,5.46c-0.527,1.484 -1.198,2.634 -2.011,3.448c-0.815,0.814 -1.976,1.437 -3.484,1.867c-1.508,0.432 -2.945,0.694 -4.31,0.79c-1.365,0.096 -3.173,0.145 -5.424,0.145c-2.874,0 -5.113,-0.097 -6.717,-0.288c-1.605,-0.191 -3.209,-0.657 -4.813,-1.4c-1.605,-0.742 -2.755,-1.928 -3.448,-3.556c-0.695,-1.628 -1.042,-3.783 -1.042,-6.466l0,-12.068c0,-2.299 0.275,-4.238 0.826,-5.819c0.55,-1.58 1.221,-2.802 2.012,-3.663c0.79,-0.862 1.951,-1.521 3.484,-1.976c1.532,-0.455 2.957,-0.729 4.274,-0.826c1.317,-0.096 3.125,-0.144 5.424,-0.144s4.106,0.048 5.424,0.144c1.316,0.097 2.741,0.371 4.274,0.826c1.532,0.455 2.694,1.113 3.484,1.976c0.79,0.861 1.46,2.083 2.011,3.663c0.55,1.581 0.826,3.52 0.826,5.819zm-6.609,13.002l0,-14.08c0,-3.208 -0.646,-5.195 -1.939,-5.962c-1.293,-0.766 -3.784,-1.149 -7.471,-1.149c-3.688,0 -6.178,0.384 -7.471,1.149c-1.293,0.767 -1.939,2.754 -1.939,5.962l0,14.08c0,1.533 0.167,2.755 0.503,3.664c0.334,0.91 0.957,1.569 1.868,1.976c0.909,0.407 1.843,0.659 2.802,0.754c0.957,0.097 2.371,0.144 4.238,0.144s3.28,-0.047 4.238,-0.144c0.958,-0.095 1.892,-0.347 2.802,-0.754c0.909,-0.406 1.532,-1.065 1.868,-1.976c0.333,-0.909 0.501,-2.131 0.501,-3.664z" fill="#010101"/>
   <path id="svg_25" d="m462.422,225.879l-3.592,0c-2.97,0 -5.161,0.384 -6.573,1.149c-1.413,0.767 -2.119,2.203 -2.119,4.31l0,24.497l-6.465,0l0,-34.77l6.106,0l0,5.676c0,-1.677 1.042,-3.161 3.125,-4.454s4.203,-1.939 6.357,-1.939l3.161,0l0,5.531z" fill="#010101"/>
   <path id="svg_26" d="m512.852,255.835l-6.25,0l0,-3.305c-0.527,2.683 -4.023,4.023 -10.488,4.023c-4.79,0 -8.106,-0.729 -9.95,-2.191c-1.844,-1.46 -2.766,-4.418 -2.766,-8.872c0,-3.879 0.862,-6.548 2.586,-8.01c1.724,-1.46 5.052,-2.191 9.985,-2.191l10.417,0l0,-5.531c0,-1.915 -0.587,-3.208 -1.76,-3.879c-1.174,-0.67 -3.389,-1.006 -6.645,-1.006c-3.544,0 -7.519,0.287 -11.925,0.862l0,-4.741c4.741,-0.432 9.027,-0.646 12.859,-0.646c5.842,0 9.626,0.707 11.35,2.119c1.724,1.413 2.586,4.346 2.586,8.8l0,24.568l0.001,0zm-6.466,-7.04l0,-9.482l-9.986,0c-2.97,0 -4.825,0.384 -5.567,1.149c-0.743,0.767 -1.113,2.514 -1.113,5.244c0,2.442 0.395,4.155 1.186,5.136c0.79,0.982 2.454,1.473 4.993,1.473l1.293,0c1.245,0 2.286,-0.023 3.125,-0.071c0.837,-0.047 1.783,-0.18 2.837,-0.396c1.053,-0.215 1.855,-0.574 2.407,-1.077c0.549,-0.503 0.825,-1.161 0.825,-1.976z" fill="#010101"/>
   <path id="svg_27" d="m570.537,255.835l-6.466,0l0,-25.144c0,-0.861 -0.072,-1.58 -0.216,-2.154c-0.144,-0.575 -0.443,-1.161 -0.897,-1.761c-0.456,-0.598 -1.222,-1.053 -2.299,-1.364c-1.078,-0.312 -2.432,-0.468 -4.059,-0.468c-3.784,0 -6.322,0.408 -7.615,1.222c-1.293,0.815 -1.939,2.323 -1.939,4.525l0,25.144l-6.465,0l0,-34.77l6.465,0l0,4.238c0.67,-3.305 4.478,-4.956 11.422,-4.956c4.598,0 7.759,0.826 9.482,2.478c1.725,1.652 2.587,4.156 2.587,7.508l0,25.502z" fill="#010101"/>
   <path id="svg_28" d="m610.333,239.887l-23.347,0l0,5.244c0,2.442 0.862,4.18 2.586,5.209c1.725,1.03 4.285,1.544 7.687,1.544c3.305,0 7.207,-0.574 11.71,-1.724l0,4.956c-4.311,0.958 -8.502,1.438 -12.572,1.438c-10.632,0 -15.947,-3.544 -15.947,-10.633l0,-13.721c0,-4.262 1.221,-7.303 3.663,-9.123c2.442,-1.819 6.346,-2.729 11.71,-2.729c5.028,0 8.703,0.874 11.027,2.622c2.322,1.748 3.483,4.825 3.483,9.23l0,7.687zm-6.464,-4.238l0,-5.46c0,-2.106 -0.646,-3.556 -1.939,-4.346s-3.448,-1.186 -6.466,-1.186c-2.873,0 -5.005,0.384 -6.394,1.149c-1.39,0.767 -2.083,2.228 -2.083,4.382l0,5.46l16.882,0l0,0.001z" fill="#010101"/>
   <path id="svg_29" d="m670.605,221.066l-11.422,34.77l-7.687,0l-8.405,-28.089l-8.262,28.089l-7.687,0l-11.709,-34.77l7.111,0l8.478,28.592l0.431,0l8.189,-28.592l7.256,0l8.477,28.592l0.431,0l8.189,-28.592l6.61,0z" fill="#010101"/>
   <path id="svg_30" d="m721.034,255.835l-6.25,0l0,-3.305c-0.527,2.683 -4.022,4.023 -10.488,4.023c-4.789,0 -8.105,-0.729 -9.949,-2.191c-1.844,-1.46 -2.766,-4.418 -2.766,-8.872c0,-3.879 0.862,-6.548 2.586,-8.01c1.725,-1.46 5.053,-2.191 9.985,-2.191l10.417,0l0,-5.531c0,-1.915 -0.587,-3.208 -1.76,-3.879c-1.175,-0.67 -3.389,-1.006 -6.646,-1.006c-3.545,0 -7.52,0.287 -11.925,0.862l0,-4.741c4.741,-0.432 9.026,-0.646 12.858,-0.646c5.843,0 9.627,0.707 11.351,2.119c1.725,1.413 2.586,4.346 2.586,8.8l0,24.568l0.001,0zm-6.465,-7.04l0,-9.482l-9.985,0c-2.971,0 -4.826,0.384 -5.567,1.149c-0.743,0.767 -1.113,2.514 -1.113,5.244c0,2.442 0.395,4.155 1.185,5.136c0.79,0.982 2.454,1.473 4.993,1.473l1.293,0c1.245,0 2.286,-0.023 3.125,-0.071c0.837,-0.047 1.783,-0.18 2.838,-0.396c1.053,-0.215 1.854,-0.574 2.406,-1.077c0.548,-0.503 0.825,-1.161 0.825,-1.976z" fill="#010101"/>
   <path id="svg_31" d="m761.91,221.066l0,38.074c0,4.932 -1.379,8.249 -4.131,9.949c-2.756,1.699 -6.885,2.551 -12.392,2.551c-4.934,0 -8.933,-0.265 -11.997,-0.791l0,-4.598c5.507,0.671 9.698,1.006 12.571,1.006c3.305,0 5.71,-0.527 7.22,-1.58c1.508,-1.054 2.262,-2.802 2.262,-5.244l0,-8.333c-0.096,1.629 -1.209,2.778 -3.34,3.448c-2.131,0.67 -4.562,1.006 -7.292,1.006c-5.364,0 -9.016,-0.791 -10.955,-2.371s-2.909,-4.311 -2.909,-8.189l0,-14.152c0,-4.118 1.113,-7.063 3.34,-8.836c2.228,-1.771 5.879,-2.657 10.955,-2.657c6.035,0 9.578,1.364 10.632,4.095l0,-3.377l6.036,0l0,-0.001zm-6.467,25.358l0,-15.732c0,-2.25 -0.609,-3.795 -1.832,-4.633c-1.221,-0.838 -3.747,-1.258 -7.578,-1.258c-3.592,0 -5.939,0.408 -7.04,1.222c-1.103,0.814 -1.652,2.37 -1.652,4.669l0,15.732c0,2.396 0.586,3.964 1.76,4.706c1.173,0.743 3.531,1.113 7.076,1.113c3.256,0 5.614,-0.396 7.077,-1.186c1.459,-0.789 2.189,-2.334 2.189,-4.633z" fill="#010101"/>
   <path id="svg_32" d="m801.705,239.887l-23.346,0l0,5.244c0,2.442 0.861,4.18 2.586,5.209c1.725,1.03 4.285,1.544 7.686,1.544c3.305,0 7.207,-0.574 11.711,-1.724l0,4.956c-4.311,0.958 -8.502,1.438 -12.572,1.438c-10.633,0 -15.947,-3.544 -15.947,-10.633l0,-13.721c0,-4.262 1.221,-7.303 3.662,-9.123c2.443,-1.819 6.346,-2.729 11.711,-2.729c5.027,0 8.703,0.874 11.027,2.622c2.322,1.748 3.482,4.825 3.482,9.23l0,7.687zm-6.465,-4.238l0,-5.46c0,-2.106 -0.646,-3.556 -1.939,-4.346s-3.447,-1.186 -6.465,-1.186c-2.873,0 -5.006,0.384 -6.395,1.149c-1.389,0.767 -2.082,2.228 -2.082,4.382l0,5.46l16.881,0l0,0.001z" fill="#010101"/>
  </g>
 </g>
</svg>